Coordinates
version=1
nRows=24
nColumns=22
inDegrees=yes

Units are S.I. units (second, meters, Newtons, ...)
If the header above contains a line with 'inDegrees', this indicates whether rotational values are in degrees (yes) or radians (no).

endheader
time	pelvis_tilt	pelvis_list	pelvis_rotation	pelvis_tx	pelvis_ty	pelvis_tz	hip_flexion_r	hip_adduction_r	hip_rotation_r	knee_angle_r	ankle_angle_r	subtalar_angle_r	hip_flexion_l	hip_adduction_l	hip_rotation_l	knee_angle_l	ankle_angle_l	subtalar_angle_l	lumbar_extension	lumbar_bending	lumbar_rotation
      0.01000000	      3.07585646	     -2.33894739	     -4.61166590	     -0.18385127	      0.93945350	      0.99553134	     -2.81942855	      1.65135773	    -10.47742615	    -11.06755251	      5.82740625	      5.10522116	     -3.03836643	     -5.93398267	    -16.86219838	    -10.37184596	      7.14665390	      0.21431907	     -4.95463865	     -0.40931613	      0.40037952
      0.02000000	      3.07516541	     -2.33828004	     -4.60372242	     -0.18377480	      0.93945311	      0.99549189	     -2.82220846	      1.64892954	    -10.47445517	    -11.07159373	      5.82686386	      5.10516983	     -3.04071817	     -5.93169316	    -16.86229376	    -10.37271484	      7.14721543	      0.21428907	     -4.95072435	     -0.40626816	      0.39996981
      0.03000000	      3.07455913	     -2.33636255	     -4.59061199	     -0.18367289	      0.93945077	      0.99543185	     -2.82611034	      1.64472610	    -10.46835188	    -11.07762262	      5.82661600	      5.10517032	     -3.04381174	     -5.92725382	    -16.86182391	    -10.37304190	      7.14833558	      0.21435744	     -4.94536037	     -0.40230809	      0.39740980
      0.04000000	      3.07477656	     -2.31901533	     -4.56441858	     -0.18357356	      0.93944446	      0.99534403	     -2.83011147	      1.62592398	    -10.43401886	    -11.08499876	      5.83435422	      5.10731374	     -3.04827545	     -5.90375373	    -16.83776593	    -10.36236673	      7.15821214	      0.21466253	     -4.94518203	     -0.41468439	      0.34857924
      0.05000000	      3.07490105	     -2.31530047	     -4.54531342	     -0.18341395	      0.93943700	      0.99524999	     -2.83863877	      1.61878938	    -10.42652756	    -11.09173945	      5.83573467	      5.10751199	     -3.05407940	     -5.89573511	    -16.83550669	    -10.36453204	      7.15828724	      0.21466528	     -4.93399891	     -0.40814534	      0.34905415
      0.06000000	      3.08751741	     -2.26363383	     -4.49677751	     -0.18324476	      0.93944116	      0.99510496	     -2.87397983	      1.56365202	    -10.39698668	    -11.07187835	      5.88810292	      5.12071375	     -3.08299292	     -5.82576039	    -16.74152546	    -10.32335275	      7.14384185	      0.20675358	     -4.93674984	     -0.46038992	      0.29341792
      0.07000000	      3.09683603	     -2.24494442	     -4.46853902	     -0.18307518	      0.93943950	      0.99498027	     -2.89177171	      1.54038961	    -10.36205578	    -11.08188585	      5.89836701	      5.12489237	     -3.10343172	     -5.79686699	    -16.72627812	    -10.30938545	      7.14121775	      0.20270802	     -4.93844298	     -0.46711661	      0.24962591
      0.08000000	      3.10735483	     -2.21663544	     -4.43344393	     -0.18290376	      0.93944044	      0.99485778	     -2.92232864	      1.51023295	    -10.31962703	    -11.06829803	      5.92148473	      5.13148668	     -3.12646299	     -5.75712300	    -16.68937848	    -10.28790335	      7.13747121	      0.19746827	     -4.94184879	     -0.48972925	      0.21863948
      0.09000000	      3.10694431	     -2.21261991	     -4.41042374	     -0.18274034	      0.93942946	      0.99475788	     -2.93104906	      1.50320528	    -10.31131258	    -11.07532618	      5.92251481	      5.13185076	     -3.13268567	     -5.74913116	    -16.68956481	    -10.28620159	      7.13659737	      0.19697653	     -4.93499269	     -0.48176987	      0.22121291
      0.10000000	      3.12069492	     -2.18251392	     -4.38618028	     -0.18258449	      0.93944229	      0.99466964	     -2.96518136	      1.47088810	    -10.26226293	    -11.05937194	      5.94707057	      5.14091249	     -3.16880033	     -5.70460628	    -16.64011369	    -10.24736657	      7.12723074	      0.18959485	     -4.94448509	     -0.50772888	      0.17645913
      0.11000000	      3.11832691	     -2.18067817	     -4.37111950	     -0.18247000	      0.93943880	      0.99461260	     -2.97014148	      1.46730445	    -10.26050766	    -11.06255709	      5.94727996	      5.14148561	     -3.17200865	     -5.70049914	    -16.64055111	    -10.24397036	      7.12544483	      0.18889752	     -4.94454948	     -0.50247859	      0.18206638
      0.12000000	      3.11511598	     -2.17984331	     -4.36345677	     -0.18237552	      0.93944303	      0.99458471	     -2.97353813	      1.46497155	    -10.26165895	    -11.06340793	      5.94697073	      5.14253979	     -3.17620677	     -5.69793715	    -16.63837716	    -10.23828901	      7.12284447	      0.18783588	     -4.94660184	     -0.49810181	      0.18655738
      0.13000000	      3.11076403	     -2.17968386	     -4.36375758	     -0.18229949	      0.93944850	      0.99459529	     -2.97459788	      1.46438301	    -10.26222679	    -11.06380461	      5.94679087	      5.14262721	     -3.17723724	     -5.69878396	    -16.63804578	    -10.23809964	      7.12257562	      0.18773296	     -4.94852706	     -0.49786780	      0.18693629
      0.14000000	      3.10156516	     -2.20160433	     -4.37573500	     -0.18222759	      0.93946125	      0.99462767	     -2.96620998	      1.48397722	    -10.31583915	    -11.07040097	      5.92466665	      5.14871387	     -3.19179390	     -5.71911219	    -16.62904171	    -10.20610658	      7.10541728	      0.18225240	     -4.94875850	     -0.47122663	      0.23046412
      0.15000000	      3.09215099	     -2.22192242	     -4.38504074	     -0.18218501	      0.93947306	      0.99466673	     -2.95406284	      1.50340118	    -10.35344177	    -11.08124837	      5.89506161	      5.15474169	     -3.19189067	     -5.74258151	    -16.63248601	    -10.19882759	      7.09785687	      0.18041561	     -4.95373254	     -0.44781734	      0.25326008
      0.16000000	      3.07789684	     -2.24208851	     -4.39713937	     -0.18213975	      0.93947679	      0.99471452	     -2.93994794	      1.52396960	    -10.39124186	    -11.08545518	      5.86915353	      5.15984639	     -3.18330976	     -5.76767082	    -16.64035651	    -10.20071238	      7.09815132	      0.18138723	     -4.95202284	     -0.42408642	      0.28260477
      0.17000000	      3.06051609	     -2.26299889	     -4.40618948	     -0.18209990	      0.93947231	      0.99475701	     -2.92029763	      1.54570883	    -10.42134308	    -11.09428920	      5.84193583	      5.16434448	     -3.16867888	     -5.79497135	    -16.65094805	    -10.20560919	      7.10399177	      0.18496381	     -4.94894267	     -0.39982697	      0.31002788
      0.18000000	      3.05279968	     -2.26413821	     -4.40956126	     -0.18205375	      0.93947419	      0.99477846	     -2.91623372	      1.54718496	    -10.42492640	    -11.09155517	      5.83997375	      5.16475564	     -3.16475443	     -5.79767711	    -16.65171587	    -10.20437838	      7.10504383	      0.18551201	     -4.95688981	     -0.39754919	      0.31315487
      0.19000000	      3.03773716	     -2.27896949	     -4.41188170	     -0.18197178	      0.93946243	      0.99479214	     -2.90409975	      1.56277459	    -10.44800101	    -11.09626774	      5.81957795	      5.16699118	     -3.15387401	     -5.81657180	    -16.65397546	    -10.20928911	      7.11151573	      0.18980704	     -4.94950814	     -0.37893098	      0.35776916
      0.20000000	      3.03133908	     -2.27794045	     -4.40473008	     -0.18188684	      0.93945574	      0.99476704	     -2.90342404	      1.56134109	    -10.44521251	    -11.09672646	      5.81809306	      5.16713088	     -3.15159906	     -5.81484007	    -16.65555395	    -10.20771125	      7.11305790	      0.19054265	     -4.95433867	     -0.37353264	      0.36076870
      0.21000000	      3.02364033	     -2.27461901	     -4.39581951	     -0.18178975	      0.93944142	      0.99473783	     -2.90554327	      1.55950818	    -10.42043552	    -11.09069707	      5.81046642	      5.16894145	     -3.14680978	     -5.81067643	    -16.64235909	    -10.20994497	      7.12535287	      0.19631652	     -4.95563222	     -0.37314155	      0.37957968
      0.22000000	      3.01890964	     -2.27126157	     -4.37928954	     -0.18167059	      0.93942619	      0.99467649	     -2.90920963	      1.55509657	    -10.41267234	    -11.09237343	      5.81066224	      5.16899851	     -3.14667402	     -5.80519899	    -16.64357908	    -10.20739218	      7.12657987	      0.19695697	     -4.95809587	     -0.36696096	      0.38403949
      0.23000000	      3.02292327	     -2.24811940	     -4.35980066	     -0.18156238	      0.93941910	      0.99461708	     -2.93269537	      1.53426278	    -10.34989555	    -11.07025098	      5.82335344	      5.17125460	     -3.15487629	     -5.77604514	    -16.60977247	    -10.20171480	      7.13682212	      0.20111650	     -4.97304691	     -0.38963070	      0.38392897
      0.24000000	      3.06076553	     -2.22197496	     -4.34898188	     -0.18139666	      0.93946339	      0.99454179	     -2.99377423	      1.50250848	    -10.31586519	    -11.05174632	      5.84876401	      5.17860449	     -3.22888094	     -5.73058696	    -16.58822762	    -10.14536965	      7.10726460	      0.19749750	     -5.01861811	     -0.41207611	      0.39629828
